<svg width="48" height="48" viewBox="0 0 48 48" fill="none" xmlns="http://www.w3.org/2000/svg">
<path d="M24.9036 18.3938L24.9033 23.4167V23.4168V23.4752C24.9033 23.5917 24.9184 23.7047 24.9466 23.8125L24.8988 24.6302L24.8962 24.6742C24.885 24.8659 24.8103 25.0335 24.6842 25.1598L26.1268 24.2148C26.0445 24.2013 25.9624 24.1722 25.8806 24.1276L25.4844 23.9119V23.4752V23.4168V18.3938M24.9036 18.3938V18.3938L25.194 18.3938L25.4844 18.3938M24.9036 18.3938C24.9036 18.5542 25.0338 18.6842 25.194 18.6842C25.3544 18.6842 25.4844 18.5539 25.4844 18.3938M24.9036 18.3938H25.194H25.4844M19.2833 17.9448L19.2833 17.9449L19.2833 17.9448ZM19.2833 17.9448C19.0703 18.3159 18.5586 18.4544 18.1849 18.2398L19.2833 17.9448ZM17.8522 18.8175L17.8516 18.8172C17.5772 18.6588 17.3794 18.3993 17.2976 18.0953L17.2974 18.0948L17.2974 18.0947L17.297 18.0932C17.2304 17.8427 17.2473 17.5806 17.3431 17.3431V17.1486C17.1722 17.4436 17.1265 17.7878 17.2149 18.1169C17.3028 18.4458 17.5141 18.7208 17.8095 18.892L17.8522 18.8175ZM25.0957 25.5709L25.1558 25.631L25.0957 25.5709L25.095 25.5716C24.8442 25.8219 24.5077 25.9601 24.1545 25.9601C24.1545 25.9601 24.1545 25.9601 24.1545 25.9601C23.6743 25.9601 23.2532 25.7049 23.0194 25.3229C22.9954 25.3352 22.9711 25.3471 22.9465 25.3585L25.0957 25.5709ZM17.9195 17.4835C17.8377 17.6252 17.8166 17.7867 17.8587 17.9439C17.8587 17.944 17.8588 17.944 17.8588 17.9441L17.8588 17.9442L17.859 17.9448C17.9007 18.1012 17.9992 18.2307 18.142 18.3142C18.142 18.3142 18.1421 18.3142 18.1421 18.3143L17.9195 17.4835Z" fill="#013EF8" stroke="#013EF8" stroke-width="1.33333"/>
<path d="M16.1249 30.7917C15.9463 30.8992 15.7154 30.8412 15.6087 30.6629C15.5017 30.4848 15.5597 30.2536 15.7376 30.1467L16.1249 30.7917ZM11.7465 26.427C11.7611 26.4006 11.7748 26.376 11.7875 26.3531C11.8388 26.2608 11.8735 26.1983 11.8874 26.1732L11.9632 26.2131C11.9164 26.2975 11.8704 26.3802 11.8254 26.4614C11.799 26.4515 11.7726 26.4401 11.7465 26.427ZM22.155 28.7211C22.3072 28.6296 22.4146 28.485 22.4575 28.3132C22.5004 28.1417 22.4738 27.9634 22.3826 27.8112L22.155 28.7211Z" fill="#013EF8" stroke="#013EF8" stroke-width="1.33333"/>
<path d="M27.852 28.0932C27.758 28.0349 27.6725 27.9659 27.5968 27.8879L26.8775 27.5115L26.8775 27.5115L26.8374 27.4905C26.7236 27.431 26.6076 27.4028 26.4957 27.4025L27.852 28.0932ZM26.171 26.8619C26.1711 26.8618 26.1712 26.8618 26.1713 26.8618L26.2267 27.084L26.2267 27.0841L26.3119 27.4255L26.3118 27.4255L26.171 26.8619ZM30.3865 33.7855C30.3863 33.7855 30.3861 33.7854 30.386 33.7853L30.3865 33.7855ZM25.8443 30.1871L25.8456 30.1879L25.8443 30.1871Z" fill="#013EF8" stroke="#013EF8" stroke-width="1.33333"/>
</svg>
