<svg width="63" height="64" viewBox="0 0 63 64" fill="none" xmlns="http://www.w3.org/2000/svg">
<g filter="url(#filter0_d_1_718)">
<ellipse cx="31.498" cy="27.5484" rx="17" ry="17.5484" fill="#FAFAFA"/>
</g>
<g clip-path="url(#clip0_1_718)">
<path d="M36.4951 32.7089V32.7085H36.4979V28.5441C36.4979 26.5068 36.073 24.9375 33.7658 24.9375C32.6566 24.9375 31.9123 25.5658 31.6084 26.1615H31.5763V25.1277H29.3887V32.7085H31.6666V28.9547C31.6666 27.9664 31.8481 27.0107 33.0338 27.0107C34.2021 27.0107 34.2195 28.1386 34.2195 29.0181V32.7089H36.4951Z" fill="#1A202C"/>
<path d="M25.6797 25.1289H27.9604V32.7097H25.6797V25.1289Z" fill="#1A202C"/>
<path d="M26.819 21.3545C26.0898 21.3545 25.498 21.9653 25.498 22.718C25.498 23.4707 26.0898 24.0943 26.819 24.0943C27.5482 24.0943 28.1399 23.4707 28.1399 22.718C28.1394 21.9653 27.5477 21.3545 26.819 21.3545V21.3545Z" fill="#1A202C"/>
</g>
<defs>
<filter id="filter0_d_1_718" x="0.498047" y="0" width="62" height="63.0967" filterUnits="userSpaceOnUse" color-interpolation-filters="sRGB">
<feFlood flood-opacity="0" result="BackgroundImageFix"/>
<feColorMatrix in="SourceAlpha" type="matrix" values="0 0 0 0 0 0 0 0 0 0 0 0 0 0 0 0 0 0 127 0" result="hardAlpha"/>
<feOffset dy="4"/>
<feGaussianBlur stdDeviation="7"/>
<feColorMatrix type="matrix" values="0 0 0 0 0 0 0 0 0 0 0 0 0 0 0 0 0 0 0.15 0"/>
<feBlend mode="normal" in2="BackgroundImageFix" result="effect1_dropShadow_1_718"/>
<feBlend mode="normal" in="SourceGraphic" in2="effect1_dropShadow_1_718" result="shape"/>
</filter>
<clipPath id="clip0_1_718">
<rect width="11" height="11.3548" fill="white" transform="translate(25.498 21.3545)"/>
</clipPath>
</defs>
</svg>
