<svg width="63" height="64" viewBox="0 0 63 64" fill="none" xmlns="http://www.w3.org/2000/svg">
<g filter="url(#filter0_d_1_704)">
<ellipse cx="31.498" cy="27.5484" rx="17" ry="17.5484" fill="#FAFAFA"/>
</g>
<g clip-path="url(#clip0_1_704)">
<path d="M34.979 20.3223H29.017C27.0766 20.3223 25.498 21.9518 25.498 23.9548V30.1092C25.498 32.1121 27.0766 33.7416 29.017 33.7416H34.9791C36.9194 33.7416 38.498 32.1121 38.498 30.1092V23.9548C38.498 21.9518 36.9194 20.3223 34.979 20.3223V20.3223ZM37.7359 30.1092C37.7359 31.6783 36.4992 32.9549 34.979 32.9549H29.017C27.4969 32.9549 26.2602 31.6783 26.2602 30.1092V23.9548C26.2602 22.3856 27.4969 21.109 29.017 21.109H34.9791C36.4992 21.109 37.7359 22.3856 37.7359 23.9548V30.1092Z" fill="#1A202C"/>
<path d="M31.9979 23.3623C30.0379 23.3623 28.4434 25.0083 28.4434 27.0315C28.4434 29.0548 30.0379 30.7008 31.9979 30.7008C33.958 30.7008 35.5525 29.0548 35.5525 27.0315C35.5525 25.0083 33.958 23.3623 31.9979 23.3623ZM31.9979 29.9141C30.4582 29.9141 29.2055 28.621 29.2055 27.0315C29.2055 25.4422 30.4582 24.149 31.9979 24.149C33.5377 24.149 34.7904 25.4422 34.7904 27.0315C34.7904 28.621 33.5377 29.9141 31.9979 29.9141Z" fill="#1A202C"/>
<path d="M35.6382 22.0596C35.059 22.0596 34.5879 22.546 34.5879 23.1438C34.5879 23.7417 35.059 24.2281 35.6382 24.2281C36.2174 24.2281 36.6887 23.7417 36.6887 23.1438C36.6887 22.5459 36.2174 22.0596 35.6382 22.0596ZM35.6382 23.4413C35.4793 23.4413 35.35 23.3078 35.35 23.1438C35.35 22.9797 35.4793 22.8463 35.6382 22.8463C35.7972 22.8463 35.9265 22.9797 35.9265 23.1438C35.9265 23.3078 35.7972 23.4413 35.6382 23.4413Z" fill="#1A202C"/>
</g>
<defs>
<filter id="filter0_d_1_704" x="0.498047" y="0" width="62" height="63.0967" filterUnits="userSpaceOnUse" color-interpolation-filters="sRGB">
<feFlood flood-opacity="0" result="BackgroundImageFix"/>
<feColorMatrix in="SourceAlpha" type="matrix" values="0 0 0 0 0 0 0 0 0 0 0 0 0 0 0 0 0 0 127 0" result="hardAlpha"/>
<feOffset dy="4"/>
<feGaussianBlur stdDeviation="7"/>
<feColorMatrix type="matrix" values="0 0 0 0 0 0 0 0 0 0 0 0 0 0 0 0 0 0 0.15 0"/>
<feBlend mode="normal" in2="BackgroundImageFix" result="effect1_dropShadow_1_704"/>
<feBlend mode="normal" in="SourceGraphic" in2="effect1_dropShadow_1_704" result="shape"/>
</filter>
<clipPath id="clip0_1_704">
<rect width="13" height="13.4193" fill="white" transform="translate(25.498 20.3223)"/>
</clipPath>
</defs>
</svg>
