<svg width="63" height="64" viewBox="0 0 63 64" fill="none" xmlns="http://www.w3.org/2000/svg">
<g filter="url(#filter0_d_1_711)">
<ellipse cx="31.498" cy="27.5484" rx="17" ry="17.5484" fill="#FAFAFA"/>
</g>
<g clip-path="url(#clip0_1_711)">
<path d="M37.498 23.9031C37.0146 24.122 36.4995 24.2671 35.9624 24.3375C36.5149 23.997 36.9366 23.4619 37.1349 22.8169C36.6197 23.134 36.051 23.3579 35.4449 23.4829C34.9557 22.9453 34.2586 22.6123 33.4981 22.6123C32.0226 22.6123 30.8347 23.8486 30.8347 25.3641C30.8347 25.5822 30.8526 25.7918 30.8965 25.9915C28.6808 25.8799 26.7202 24.7837 25.4032 23.1139C25.1732 23.5257 25.0384 23.997 25.0384 24.5044C25.0384 25.4572 25.5137 26.3018 26.2222 26.7908C25.794 26.7824 25.3739 26.654 25.018 26.4519C25.018 26.4603 25.018 26.4712 25.018 26.4821C25.018 27.819 25.9419 28.9295 27.1533 29.1853C26.9364 29.2465 26.6999 29.2758 26.4545 29.2758C26.2839 29.2758 26.1117 29.2658 25.95 29.2289C26.2953 30.3184 27.2752 31.1193 28.4403 31.1453C27.5335 31.8775 26.3822 32.3187 25.1359 32.3187C24.9173 32.3187 24.7077 32.3086 24.498 32.2809C25.6786 33.0668 27.0777 33.5155 28.5865 33.5155C33.4908 33.5155 36.172 29.322 36.172 25.687C36.172 25.5654 36.168 25.448 36.1623 25.3314C36.6912 24.9439 37.1357 24.46 37.498 23.9031Z" fill="#1A202C"/>
</g>
<defs>
<filter id="filter0_d_1_711" x="0.498047" y="0" width="62" height="63.0967" filterUnits="userSpaceOnUse" color-interpolation-filters="sRGB">
<feFlood flood-opacity="0" result="BackgroundImageFix"/>
<feColorMatrix in="SourceAlpha" type="matrix" values="0 0 0 0 0 0 0 0 0 0 0 0 0 0 0 0 0 0 127 0" result="hardAlpha"/>
<feOffset dy="4"/>
<feGaussianBlur stdDeviation="7"/>
<feColorMatrix type="matrix" values="0 0 0 0 0 0 0 0 0 0 0 0 0 0 0 0 0 0 0.15 0"/>
<feBlend mode="normal" in2="BackgroundImageFix" result="effect1_dropShadow_1_711"/>
<feBlend mode="normal" in="SourceGraphic" in2="effect1_dropShadow_1_711" result="shape"/>
</filter>
<clipPath id="clip0_1_711">
<rect width="13" height="13.4193" fill="white" transform="translate(24.498 21.3545)"/>
</clipPath>
</defs>
</svg>
